<?xml version="1.0" encoding="UTF-8" standalone="no"?>
<!DOCTYPE svg PUBLIC "-//W3C//DTD SVG 1.1//EN" "http://www.w3.org/Graphics/SVG/1.1/DTD/svg11.dtd">
<!-- Created with Vectornator (http://vectornator.io/) -->
<svg height="100%" stroke-miterlimit="10" style="fill-rule:nonzero;clip-rule:evenodd;stroke-linecap:round;stroke-linejoin:round;" version="1.1" viewBox="0 0 1024 1024" width="100%" xml:space="preserve" xmlns="http://www.w3.org/2000/svg" xmlns:xlink="http://www.w3.org/1999/xlink">
<defs/>
<clipPath id="ArtboardFrame">
<rect height="1024" width="1024" x="0" y="0"/>
</clipPath>
<g clip-path="url(#ArtboardFrame)" id="Ebene-1">
<path d="M-68.8308-40.2951L1057.44-40.2951L1057.44 1076.31L-68.8308 1076.31L-68.8308-40.2951Z" fill="#000000" fill-rule="nonzero" opacity="1" stroke="#007aff" stroke-linecap="butt" stroke-linejoin="round" stroke-width="10"/>
<g opacity="1">
<path d="M659.975 52.4048C762.409 42.8144 865.757 50.4361 968.62 52.4048C976.373 52.5532 989.09 69.7964 989.906 76.7315C993.134 104.17 964.648 142.742 953.416 163.395C938.999 189.904 923.93 216.053 909.324 242.457C846.694 355.672 770.329 468.256 714.71 584.551C708.137 598.294 727.755 599.193 719.271 611.919C699.463 641.631 660.171 682.834 632.608 703.144C629.276 705.599 579.462 684.066 577.872 668.174C576.055 650.003 645.298 568.753 661.495 557.184C673.239 548.795 669.078 561.021 676.7 546.541C723.132 458.32 762.636 365.711 805.935 275.906C820.504 245.69 836.052 215.953 851.548 186.202C853.118 183.186 855.628 180.445 856.109 177.079C857.699 165.946 846.14 145.354 833.303 145.15C770.971 144.161 708.562 146.549 646.291 143.63C621.45 142.465 639.861 54.288 659.975 52.4048Z" fill="#ecac06" fill-rule="nonzero" opacity="1" stroke="#000000" stroke-linecap="butt" stroke-linejoin="round" stroke-width="10"/>
<path d="M618.924 61.5273C613.097 82.8905 616.19 72.77 609.801 91.9357C551.748 82.5723 496.91 79.2879 437.994 87.3744C251.24 113.007 95.1626 271.847 67.012 456.836C53.1282 548.072 77.6337 620.967 101.982 706.185C78.6224 696.841 52.1368 665.844 40.9326 611.919C0.211551 381.092 138.444 136.613 363.494 70.6498C448.561 45.7163 532.175 46.4405 618.924 61.5273Z" fill="#ebae0c" fill-rule="nonzero" opacity="1" stroke="none"/>
<path d="M943.372 876.991C943.372 815.72 943.372 815.72 943.372 754.45C966.033 754.45 966.033 754.45 988.695 754.45C990.986 825.478 990.373 896.572 990.373 967.637C974.706 967.637 957.791 973.765 943.372 967.637C925.23 959.927 921.036 935.151 909.799 918.956C895.374 898.167 880.862 877.437 866.154 856.847C858.741 846.468 857.761 845.097 856.083 845.097C869.001 883.851 857.761 926.786 857.761 967.637C834.26 967.637 834.26 967.637 810.76 967.637C810.025 897.129 809.751 826.601 807.402 756.129C818.543 755.015 851.961 751.111 857.761 754.45C868.925 760.878 872.177 775.805 879.584 786.344C900.825 816.572 922.064 846.804 943.372 876.991Z" fill="#ebac06" fill-rule="nonzero" opacity="1" stroke="none"/>
<path d="M100.698 747.736C137.549 744.641 164.978 753.264 193.022 781.308C194.605 782.891 194.387 786.249 193.022 788.023C190.919 790.757 160.306 817.055 157.771 818.238C150.51 821.627 137.349 798.144 127.556 796.416C117.582 794.656 98.8076 795.173 97.3403 809.845C94.6468 836.781 138.261 839.752 154.414 846.775C183.084 859.241 202.767 882.14 198.058 913.92C184.492 1005.49 83.2857 980.938 33.5523 937.421C38.8606 926.805 49.4631 919.657 58.7318 912.242C78.1758 896.687 82.6516 915.774 102.376 923.992C115.526 929.471 144.228 930.286 146.021 910.563C148.49 883.401 103.473 879.085 87.2685 871.955C50.7433 855.884 30.4381 816.903 52.0172 779.63C54.9974 774.482 75.5151 751.979 100.698 747.736Z" fill="#ebac09" fill-rule="nonzero" opacity="1" stroke="none"/>
<path d="M236.667 756.129C303.812 756.129 303.812 756.129 370.958 756.129C370.958 778.79 370.958 778.79 370.958 801.452C329.831 801.452 329.831 801.452 288.705 801.452C290.914 814.71 290.383 828.299 290.383 841.739C324.795 841.739 324.795 841.739 359.207 841.739C359.207 861.044 359.207 861.044 359.207 880.348C335.745 881.814 312.212 882.026 288.705 882.026C288.705 903.849 288.705 903.849 288.705 925.671C331.51 925.671 331.51 925.671 374.315 925.671C374.315 947.493 374.315 947.493 374.315 969.315C306.33 969.315 306.33 969.315 238.346 969.315C237.506 862.722 237.506 862.722 236.667 756.129Z" fill="#ebaa02" fill-rule="nonzero" opacity="1" stroke="none"/>
<path d="M632.824 754.45C696.613 754.45 696.613 754.45 760.401 754.45C761.24 777.112 761.24 777.112 762.079 799.773C721.792 799.773 721.792 799.773 681.505 799.773C681.505 819.917 681.505 819.917 681.505 840.061L714.348 840.061L752.007 840.061C752.007 860.204 752.007 860.204 752.007 880.348C728.002 882.063 703.893 882.026 679.826 882.026C680.665 903.009 680.665 903.009 681.505 923.992C708.928 923.992 736.471 922.942 763.758 925.671C763.758 946.654 763.758 946.654 763.758 967.637C698.291 967.637 698.291 967.637 632.824 967.637C632.824 861.044 632.824 861.044 632.824 754.45Z" fill="#ebac09" fill-rule="nonzero" opacity="1" stroke="none"/>
<path d="M402.852 756.129C420.198 756.129 439.213 748.703 454.889 756.129C464.656 760.755 463.148 776.118 466.64 786.344C479.395 823.699 489.683 861.781 503.57 898.813C522.284 861.385 533.484 812.391 547.214 772.915C549.194 767.223 548.161 757.877 553.929 756.129C569.458 751.423 586.382 756.129 602.609 756.129C578.99 826.986 551.402 896.442 528.749 967.637C511.963 967.637 493.245 975.455 478.39 967.637C467.724 962.023 469.193 945.35 464.961 934.064C449.048 891.63 432.895 849.276 417.959 806.488C412.184 789.942 407.888 772.915 402.852 756.129Z" fill="#ebad09" fill-rule="nonzero" opacity="1" stroke="none"/>
<path d="M594.597 140.589C533.311 135.26 473.572 134.735 413.667 149.712C252.942 189.893 125.002 337.221 117.186 503.969C114.816 554.528 121.013 602.114 136.951 649.929C140.196 659.664 143.833 669.269 147.594 678.817C150.708 686.721 158.996 695.545 155.196 703.144C120.488 664.097 109.46 601.748 103.502 551.102C82.1141 369.304 202.531 192.563 377.177 142.109C435.402 125.289 493.497 120.708 553.546 129.946C567.518 132.096 584.601 130.593 594.597 140.589Z" fill="#eab114" fill-rule="nonzero" opacity="1" stroke="none"/>
<path d="M655.414 222.692C595.85 202.217 546.974 192.258 483.607 195.324C331.922 202.664 177.087 342.623 173.441 499.408C171.963 562.955 178.224 618.444 206.89 675.776C208.78 679.556 230.701 710.258 228.176 715.307C91.765 539.921 156.537 306.303 351.33 212.049C421.836 177.933 505.174 170.643 580.913 192.283C594.782 196.246 608.459 200.902 621.965 205.967C633.637 210.344 649.839 211.542 655.414 222.692Z" fill="#eab114" fill-rule="nonzero" opacity="1" stroke="none"/>
<path d="M924.528 688.357C921.761 690.039 924.528 688.357 919.967 690.98C951.915 607.116 960.467 523.576 945.814 434.03C941.176 405.69 933.705 382.501 924.528 354.968C912.827 319.866 900.188 315.179 923.007 281.988C926.744 276.552 935.383 299.137 939.732 307.835C954.997 338.365 966.429 372.052 974.702 405.142C990.287 467.483 997.431 549.163 977.742 611.919C967.779 643.677 959.027 661.564 924.528 688.357Z" fill="#eaae0c" fill-rule="nonzero" opacity="1" stroke="none"/>
<path d="M623.485 272.865C541.471 256.463 493.746 243.132 409.106 271.345C277.803 315.113 203.713 468.466 237.299 599.755C247.311 638.893 269.726 671.373 293.554 703.144C281.675 709.083 255.605 665.39 250.983 657.531C228.68 619.616 215.57 575.491 214.493 531.336C210.429 364.727 339.309 224.574 512.495 237.896C548.126 240.637 594.771 251.33 623.485 272.865Z" fill="#e9b115" fill-rule="nonzero" opacity="1" stroke="none"/>
<path d="M599.158 327.6C546.841 317.137 508.088 303.57 453.198 316.958C340.319 344.489 281.461 451.003 288.993 560.224C292.337 608.719 321.81 639.858 346.769 677.297C310.807 659.316 287.365 608.055 278.35 570.867C247.536 443.759 326.676 328.949 450.157 300.233C501.989 288.179 551.611 299.629 597.638 324.56C598.634 325.099 598.652 326.587 599.158 327.6Z" fill="#e9b319" fill-rule="nonzero" opacity="1" stroke="none"/>
<path d="M476 368.656C395.011 394.707 347.645 440.211 342.219 503.969C339.175 539.73 345.874 572.663 360 600.188C392.416 663.348 463.854 698.007 545.938 672.75C540.621 630.218 602.655 578.82 629.562 546.531C635.088 539.901 640.016 532.717 646.281 526.781C649.752 523.493 656.433 523.514 658.469 519.188C663.572 508.343 651.936 472.748 649.344 465.969C620.976 391.776 545.939 368.656 476 368.656ZM497.875 485.219C544.627 486.436 564.594 542.455 512.5 564.781C484.526 576.77 451.133 548.181 456.25 519.188C459.815 498.985 468.95 488.204 488.156 485.719C491.498 485.286 494.758 485.138 497.875 485.219Z" fill="#ecaa03" fill-rule="nonzero" opacity="1" stroke="none"/>
<path d="M871.313 367.131C879.218 367.131 892.974 404.953 895.64 412.744C899.741 424.732 903.611 436.849 906.283 449.234C920.408 514.725 895.64 648.409 895.64 648.409C895.64 648.409 866.666 710.21 850.027 704.664C887.684 629.35 905.091 550.579 898.681 465.958C896.124 432.204 871.313 399.028 871.313 367.131Z" fill="#e6b118" fill-rule="nonzero" opacity="1" stroke="none"/>
<path d="M833.303 435.55C843.365 435.55 848.317 471.092 850.027 479.642C855.682 507.918 855.104 522.066 853.068 557.184C850.678 598.408 824.718 697.514 777.047 716.827C775.299 717.587 777.047 716.827 774.006 718.348C819.363 650.313 848.096 580.904 843.946 497.887C842.855 476.077 833.303 456.782 833.303 435.55Z" fill="#e6b019" fill-rule="nonzero" opacity="1" stroke="none"/>
<path d="M790.731 516.132C792.251 516.132 792.251 516.132 793.772 516.132C793.772 569.517 761.675 658.9 761.675 658.9C761.675 658.9 753.135 674.168 748.159 681.858C743.112 689.659 716.501 732.167 701.026 724.43C754.339 662.232 786.612 598.521 790.731 516.132Z" fill="#e5b825" fill-rule="nonzero" opacity="1" stroke="none"/>
</g>
</g>
</svg>
