<?xml version="1.0" encoding="UTF-8" standalone="no"?>
<!DOCTYPE svg PUBLIC "-//W3C//DTD SVG 1.1//EN" "http://www.w3.org/Graphics/SVG/1.1/DTD/svg11.dtd">
<!-- Created with Vectornator (http://vectornator.io/) -->
<svg height="100%" stroke-miterlimit="10" style="fill-rule:nonzero;clip-rule:evenodd;stroke-linecap:round;stroke-linejoin:round;" version="1.1" viewBox="0 0 1024 1024" width="100%" xml:space="preserve" xmlns="http://www.w3.org/2000/svg" xmlns:xlink="http://www.w3.org/1999/xlink">
<defs/>
<clipPath id="ArtboardFrame">
<rect height="1024" width="1024" x="0" y="0"/>
</clipPath>
<g clip-path="url(#ArtboardFrame)" id="Ebene-1">
<g opacity="1">
<path d="M-1.7053e-13 1.13687e-13C512 1.13687e-13 512 1.13687e-13 1024 1.13687e-13C1024 512 1024 512 1024 1024C512 1024 512 1024-1.7053e-13 1024C-1.7053e-13 512-1.7053e-13 512-1.7053e-13 1.13687e-13Z" fill="#000000" fill-rule="nonzero" opacity="1" stroke="none"/>
<path d="M616.353 87.1295C610.751 107.671 613.724 97.9398 607.581 116.368C522.297 102.154 437.734 103.876 356.127 135.374C305.611 154.871 258.781 183.733 218.704 220.166C-9.39801 427.532 62.5287 792.149 334.198 920.437C543.635 1019.34 805.342 913.772 899.97 706.993C942.439 614.191 949.9 503.836 921.899 405.833C914.487 379.892 901.534 355.753 894.122 329.812C891.008 318.913 902.32 308.451 908.741 299.111C909.293 298.308 911.158 298.279 911.665 299.111C941.444 348.034 960.77 407.558 967.219 464.311C1003.71 785.398 720.982 1052.64 401.447 977.453C107.078 908.189-43.8087 555.997 113.445 296.187C221.357 117.897 417.348 52.5201 616.353 87.1295Z" fill="#edad00" fill-rule="nonzero" opacity="1" stroke="none"/>
<path d="M654.363 78.3579C753.207 67.7398 853.206 76.4647 952.6 78.3579C960.573 78.5098 971.623 95.0114 973.067 101.749C979.466 131.61 942.507 177.131 929.209 201.161C907.345 240.67 885.415 280.142 863.421 319.578C812.636 410.642 751.922 498.825 706.993 592.962C702.257 602.886 720.703 604.56 712.841 616.353C692.342 647.102 658.424 682.04 629.51 704.069C619.937 711.364 606.57 696.452 595.886 690.912C584.588 685.054 573.162 674.154 576.88 660.211C582.482 639.204 614.336 613.999 628.048 597.348C636.418 587.184 644.262 576.582 652.901 566.647C659.101 559.517 666.678 563.424 671.907 553.489C694.127 511.271 712.792 466.41 733.308 423.376C768.576 349.401 810.206 276.208 842.954 201.161C847.9 189.826 835.289 167.74 822.487 167.536C762.553 166.585 702.544 168.881 642.668 166.074C617.513 164.895 637.54 80.1651 654.363 78.3579Z" fill="#edac00" fill-rule="nonzero" opacity="1" stroke="none"/>
<path d="M859.035 380.98C871.488 380.98 873.287 401.633 878.041 413.143C882.747 424.537 886.575 436.313 889.736 448.229C906.906 512.948 903.732 584.733 883.888 648.516C827.483 829.817 637.258 949.859 449.691 920.437C396.114 912.032 346.794 889.148 300.573 861.959C309.559 857.466 319.241 869.418 328.35 873.655C340.824 879.457 353.41 885.093 366.361 889.736C419.296 908.713 472.707 913.354 528.636 910.203C719.435 899.454 875.189 725.781 885.35 540.332C886.823 513.451 887.326 478.912 880.964 451.153C875.469 427.173 863.814 404.875 859.035 380.98Z" fill="#ebb101" fill-rule="nonzero" opacity="1" stroke="none"/>
<path d="M592.962 161.689C581.133 164.646 568.6 160.59 556.413 160.227C534.007 159.558 511.549 159.048 489.164 160.227C467.681 161.357 434.884 167.405 413.143 173.384C239.214 221.215 124.851 384.062 133.912 562.261C136.827 619.598 157.361 679.776 186.542 728.922C192.323 738.659 212.659 762.942 209.933 768.395C19.8 536.01 145.357 194.096 443.844 151.455C493.607 144.346 544.622 148.505 592.962 161.689Z" fill="#ecb201" fill-rule="nonzero" opacity="1" stroke="none"/>
<path d="M651.439 240.634C650.465 241.121 649.558 242.413 648.516 242.095C626.989 235.544 606.192 226.343 584.19 221.628C528.897 209.78 470.27 213.62 416.067 228.938C261.221 272.699 167.027 436.147 190.928 591.5C201.049 657.293 237.904 714.032 281.568 762.547C267.635 762.547 226.151 703.125 218.704 690.912C180.618 628.45 164.048 551.752 173.384 478.93C202.71 250.186 451.307 140.567 651.439 240.634Z" fill="#ecb101" fill-rule="nonzero" opacity="1" stroke="none"/>
<path d="M620.739 290.34C543.402 274.872 498.662 262.518 418.991 287.416C292.813 326.846 219.532 471.075 247.943 597.348C260.325 652.378 294.283 691.858 329.812 733.308C268.427 702.616 236.772 617.622 228.938 554.951C208.954 395.081 332.404 266.628 487.702 256.715C522.328 254.505 596.515 266.116 620.739 290.34Z" fill="#ecb201" fill-rule="nonzero" opacity="1" stroke="none"/>
<path d="M822.487 446.767C831.594 446.767 841.296 497.697 841.492 506.707C843.154 583.142 831.435 653.376 787.4 717.227C682.341 869.562 508.072 910.768 345.893 825.411C354.719 820.998 364.492 832.021 373.67 835.644C383.704 839.605 393.931 843.163 404.371 845.878C452.773 858.462 502.52 862.528 552.027 853.187C678.518 829.321 798.953 723.406 825.411 594.424C831.354 565.451 834.741 534.875 832.72 505.245C831.34 485.003 822.487 466.476 822.487 446.767Z" fill="#ecb201" fill-rule="nonzero" opacity="1" stroke="none"/>
<path d="M600.271 344.431C438.962 290.661 286.946 387.322 299.111 563.723C301.282 595.201 316.026 632.487 335.66 657.287C341.664 664.871 350.339 670.565 354.665 679.216C305.306 654.537 286.633 582.27 283.03 533.022C274.06 410.429 386.097 302.879 508.169 312.269C537.323 314.511 578.95 323.11 600.271 344.431Z" fill="#ebb101" fill-rule="nonzero" opacity="1" stroke="none"/>
<g opacity="1">
<path d="M480.406 382.437C405.048 409.329 355.194 453.615 350.281 512.562C340.801 626.328 433.793 709.427 546.188 674.844C541.286 635.634 601.119 584.07 626.594 553.5C631.906 547.125 636.632 540.176 642.656 534.469C645.994 531.307 652.508 531.389 654.375 527.188C659.3 516.106 647.393 480.883 645.594 476C619.606 405.461 548.504 382.437 480.406 382.437ZM506.375 493.281C552.918 496.743 554.663 568.812 506.719 572.5C452.201 576.694 443.303 499.935 496.469 493.562C499.968 493.143 503.272 493.05 506.375 493.281Z" fill="#edab00" fill-rule="nonzero" opacity="1" stroke="none"/>
</g>
<path d="M781.552 524.25C783.014 524.25 783.014 524.25 784.476 524.25C784.476 696.432 651.855 823.322 478.93 813.715C437.725 811.426 400.581 793.023 364.899 774.243C367.823 773.512 367.823 773.512 370.746 772.781C370.746 774.243 370.746 774.243 370.746 775.705C419.518 791.962 458.413 806.463 511.093 803.481C661.547 794.965 774.531 671.689 781.552 524.25Z" fill="#ecb602" fill-rule="nonzero" opacity="1" stroke="none"/>
<path d="M411.681 736.232C449.082 747.452 478.179 750.045 518.403 747.928C526.147 747.52 587.114 729.183 587.114 743.542C541.813 758.642 495.47 766.595 448.229 752.313C435.489 748.462 417.633 748.137 411.681 736.232Z" fill="#eab702" fill-rule="nonzero" opacity="1" stroke="none"/>
</g>
</g>
</svg>
