<?xml version="1.0" encoding="UTF-8" standalone="no"?>
<!DOCTYPE svg PUBLIC "-//W3C//DTD SVG 1.1//EN" "http://www.w3.org/Graphics/SVG/1.1/DTD/svg11.dtd">
<!-- Created with Vectornator (http://vectornator.io/) -->
<svg height="100%" stroke-miterlimit="10" style="fill-rule:nonzero;clip-rule:evenodd;stroke-linecap:round;stroke-linejoin:round;" version="1.1" viewBox="0 0 1716.22 411.059" width="100%" xml:space="preserve" xmlns="http://www.w3.org/2000/svg" xmlns:xlink="http://www.w3.org/1999/xlink">
<defs/>
<clipPath id="ArtboardFrame">
<rect height="411.059" width="1716.22" x="0" y="0"/>
</clipPath>
<g clip-path="url(#ArtboardFrame)" id="Ebene-1">
<path d="M0 2.84217e-14L1727.11 2.84217e-14L1727.11 411.059L0 411.059L0 2.84217e-14Z" fill="#000000" fill-rule="nonzero" opacity="1" stroke="none"/>
<path d="M1631.78 232.892C1631.78 123.002 1631.78 123.002 1631.78 13.1125C1672.43 13.1125 1672.43 13.1125 1713.07 13.1125C1717.18 140.502 1716.08 268.012 1716.08 395.468C1687.98 395.468 1657.65 406.459 1631.78 395.468C1599.25 381.64 1591.73 337.204 1571.57 308.158C1545.7 270.873 1519.67 233.693 1493.29 196.764C1480 178.148 1478.24 175.689 1475.23 175.689C1498.4 245.196 1478.24 322.201 1478.24 395.468C1436.09 395.468 1436.09 395.468 1393.94 395.468C1392.62 269.011 1392.13 142.517 1387.92 16.1231C1407.9 14.125 1467.84 7.12285 1478.24 13.1125C1498.26 24.6403 1504.1 51.412 1517.38 70.3152C1555.48 124.53 1593.57 178.752 1631.78 232.892Z" fill="#ebac06" fill-rule="nonzero" opacity="1" stroke="none"/>
<path d="M120.427 1.06977C186.521-4.48164 235.716 10.9857 286.014 61.2832C288.852 64.1217 288.461 70.1441 286.014 73.3259C282.241 78.2302 227.337 125.396 222.79 127.518C209.766 133.596 186.162 91.4788 168.598 88.3793C150.709 85.2225 117.037 86.1496 114.406 112.465C109.575 160.774 187.798 166.104 216.768 178.699C268.19 201.056 303.49 242.128 295.046 299.126C270.715 463.362 89.1983 419.324 1.13687e-13 341.276C9.52058 322.235 28.5364 309.415 45.1601 296.116C80.0334 268.217 88.0609 302.45 123.438 317.19C147.022 327.017 198.499 328.479 201.715 293.105C206.144 244.389 125.405 236.648 96.3415 223.86C30.8326 195.036-5.58535 125.123 33.1174 58.2726C38.4624 49.0402 75.2614 8.68077 120.427 1.06977Z" fill="#ebac09" fill-rule="nonzero" opacity="1" stroke="none"/>
<path d="M364.291 16.1231C484.718 16.1231 484.718 16.1231 605.145 16.1231C605.145 56.7672 605.145 56.7672 605.145 97.4113C531.384 97.4113 531.384 97.4113 457.622 97.4113C461.585 121.19 460.633 145.561 460.633 169.667C522.352 169.667 522.352 169.667 584.071 169.667C584.071 204.29 584.071 204.29 584.071 238.913C541.991 241.543 499.784 241.924 457.622 241.924C457.622 281.062 457.622 281.062 457.622 320.201C534.394 320.201 534.394 320.201 611.167 320.201C611.167 359.34 611.167 359.34 611.167 398.479C489.234 398.479 489.234 398.479 367.302 398.479C365.797 207.301 365.797 207.301 364.291 16.1231Z" fill="#ebaa02" fill-rule="nonzero" opacity="1" stroke="none"/>
<path d="M1074.81 13.1125C1189.22 13.1125 1189.22 13.1125 1303.62 13.1125C1305.13 53.7565 1305.13 53.7565 1306.63 94.4006C1234.38 94.4006 1234.38 94.4006 1162.12 94.4006C1162.12 130.529 1162.12 130.529 1162.12 166.657L1221.02 166.657L1288.57 166.657C1288.57 202.785 1288.57 202.785 1288.57 238.913C1245.51 241.988 1202.27 241.924 1159.11 241.924C1160.61 279.557 1160.61 279.557 1162.12 317.19C1211.3 317.19 1260.7 315.307 1309.64 320.201C1309.64 357.835 1309.64 357.835 1309.64 395.468C1192.23 395.468 1192.23 395.468 1074.81 395.468C1074.81 204.29 1074.81 204.29 1074.81 13.1125Z" fill="#ebac09" fill-rule="nonzero" opacity="1" stroke="none"/>
<path d="M662.348 16.1231C693.458 16.1231 727.563 2.80524 755.679 16.1231C773.195 24.4203 770.49 51.9732 776.754 70.3152C799.631 137.312 818.082 205.612 842.988 272.03C876.552 204.903 896.64 117.03 921.266 46.2299C924.817 36.0211 922.964 19.2577 933.309 16.1231C961.161 7.68299 991.515 16.1231 1020.62 16.1231C978.257 143.208 928.777 267.777 888.149 395.468C858.042 395.468 824.47 409.49 797.828 395.468C778.699 385.4 781.333 355.495 773.743 335.254C745.203 259.148 716.231 183.185 689.444 106.443C679.085 76.7669 671.38 46.2299 662.348 16.1231Z" fill="#ebad09" fill-rule="nonzero" opacity="1" stroke="none"/>
</g>
</svg>
